<?xml version="1.0" encoding="utf-8"?>
<!-- Generator: Adobe Illustrator 25.2.1, SVG Export Plug-In . SVG Version: 6.00 Build 0)  -->
<svg version="1.1" id="Calque_1" xmlns="http://www.w3.org/2000/svg" xmlns:xlink="http://www.w3.org/1999/xlink" x="0px" y="0px"
	 viewBox="0 0 96 120" style="enable-background:new 0 0 96 120;" xml:space="preserve">
<path d="M91.3,88.8v-0.8c0-3.4-0.4-6.7-1.2-9.9c0.7-1.9,1.2-3.9,1.2-6c0-8.5-6.4-15.6-14.7-16.5c-6.1-5.4-13.8-9.1-22.3-10.3
	c7.7-2.6,13.3-9.9,13.3-18.5C67.6,16,58.8,7.2,48,7.2c-10.8,0-19.6,8.8-19.6,19.6c0,8.6,5.6,15.9,13.3,18.5c-20.9,3-37,21.1-37,42.8
	v0.8h69.8H91.3z M81.5,87.3c3.2-1.5,5.8-3.9,7.6-6.9c0.4,2.2,0.7,4.5,0.7,6.9H81.5z M75.9,57.1c0.9,0.1,1.8,0.3,2.7,0.5
	c6.4,1.8,11.1,7.6,11.1,14.6c0,1.1-0.1,2.2-0.4,3.3c-0.2,0.9-0.5,1.8-0.8,2.6c-2.3,5.4-7.7,9.2-13.9,9.2c-8.4,0-15.2-6.8-15.2-15.2
	S66.2,57,74.6,57C75,57,75.5,57,75.9,57.1z M29.9,26.8c0-10,8.1-18.1,18.1-18.1c10,0,18.1,8.1,18.1,18.1c0,10-8.1,18.1-18.1,18.1
	C38,44.8,29.9,36.7,29.9,26.8z M6.3,87.3c0.4-22.7,19-41,41.7-41c9.9,0,18.9,3.4,26.1,9.2c-9,0.3-16.2,7.6-16.2,16.6
	c0,6.7,4,12.5,9.8,15.2H6.3z"/>
<path d="M75.6,77l4.2-12.2L75,63.1l-4.2,12.2l0.6,6L75.6,77z M75.9,65l2,0.7l-3.6,10.5L72.6,78l-0.3-2.5L75.9,65z"/>
</svg>
